<svg xmlns="http://www.w3.org/2000/svg" xmlns:xlink="http://www.w3.org/1999/xlink" width="131" height="50" viewBox="0 0 131 50"><defs><path id="66gha" d="M222 99h74v4h-74z"/><path id="66ghb" d="M165 103V53h49v50z"/><path id="66ghc" d="M174 74.884h1.047v6.232H174V84h7v-2.884h-1.052v-6.232H181V72h-7v2.884z"/><path id="66ghd" d="M188.644 76.55h-1.65v-1.666h1.65a.84.84 0 0 1 .682.833.84.84 0 0 1-.682.833zm0 4.587h-1.65v-1.666h1.65a.84.84 0 0 1 .682.833.84.84 0 0 1-.682.833zm4.81-6.215c0-2.575-2.267-2.922-3.191-2.922H182v2.884h.977v6.232H182V84h8.838c2.082 0 3.162-1.742 3.162-3.383 0-1.557-.655-2.604-1.849-3.126.149-.058 1.303-.575 1.303-2.57z"/><path id="66ghe" d="M201.347 76.55h-2.107a.84.84 0 0 1-.684-.833.84.84 0 0 1 .684-.833h1.202v1.006h3.918V72h-6.665a3.62 3.62 0 0 0-3.178 1.81 3.796 3.796 0 0 0-.058 3.72 3.626 3.626 0 0 0 3.12 1.912h2.566a.819.819 0 0 1 .833.369.862.862 0 0 1 0 .928.819.819 0 0 1-.833.369h-1.731v-.998h-3.93V84h6.876c2.01 0 3.64-1.668 3.64-3.725 0-2.057-1.63-3.725-3.64-3.725z"/><path id="66ghf" d="M224.364 81.968h1.346c.716 0 3.81-.134 3.81-3.97 0-3.836-3.094-3.975-3.81-3.975h-1.346zM225.675 72c2.042 0 6.325.464 6.325 5.998 0 2.63-.98 6.002-6.325 6.002H222V72z"/><path id="66ghg" d="M239.354 79.912c-1.248 0-3.06 0-3.06 1.415 0 .627.38 1.133 1.383 1.133.928 0 2.045-.44 2.045-2.328v-.22zm-4.323-4.337a7.958 7.958 0 0 1 3.157-.573c3.493 0 3.812 2.042 3.812 3.358v5.515h-2.213v-1.29h-.032c-.184.37-.818 1.415-2.696 1.415-2.176 0-3.059-1.299-3.059-2.664 0-1.196.613-2.885 4.274-2.885h1.464v-.373c0-.963-.916-1.503-1.947-1.503a5.235 5.235 0 0 0-2.76.776z"/><path id="66ghh" d="M242 76.394v-1.788h1.997v-1.841l2.66-.765v2.606H249v1.788h-2.343v4.196c0 .804 0 1.626 1.309 1.626.351-.006.7-.06 1.034-.163v1.714c-.672.146-1.36.224-2.05.233-2.934 0-2.953-2.25-2.953-2.856v-4.75z"/><path id="66ghi" d="M254.363 79.912c-1.251 0-3.069 0-3.069 1.415 0 .627.382 1.133 1.383 1.133.935 0 2.05-.44 2.05-2.328v-.22zm-4.332-4.337a7.978 7.978 0 0 1 3.161-.573c3.489 0 3.808 2.042 3.808 3.358v5.515h-2.213v-1.29h-.036c-.18.37-.818 1.415-2.692 1.415-2.18 0-3.059-1.299-3.059-2.664 0-1.196.613-2.885 4.274-2.885h1.464v-.373c0-.963-.916-1.503-1.947-1.503a5.235 5.235 0 0 0-2.76.776z"/><path id="66ghj" d="M265 72v2.023h-4.466v2.913h4.25v1.968h-4.25V84H258V72z"/><path id="66ghk" d="M270.495 82.35c1.009 0 2.1-.83 2.1-2.85s-1.091-2.85-2.1-2.85c-1.009 0-2.1.83-2.1 2.85s1.091 2.85 2.1 2.85zM270.5 75c2.594 0 4.5 1.584 4.5 4.5s-1.919 4.5-4.5 4.5-4.5-1.584-4.5-4.5 1.906-4.5 4.5-4.5z"/><path id="66ghl" d="M278.395 75.139v1.913h.057c.186-1.183 1.332-2.061 2.68-2.052.293.01.583.045.868.105l-.095 1.682c-.194 0-.583-.05-.849-.05-.948 0-2.428.513-2.428 2.99V84H276v-8.861z"/><path id="66ghm" d="M281 76.394v-1.788h1.997v-1.841l2.66-.765v2.606H288v1.788h-2.343v4.196c0 .804 0 1.626 1.309 1.626.351-.006.7-.06 1.034-.163v1.714c-.672.146-1.359.224-2.05.233-2.934 0-2.953-2.25-2.953-2.856v-4.75z"/></defs><g><g transform="translate(-165 -53)"><g><use fill="#009ba4" xlink:href="#66gha"/></g><g><use fill="#002d59" xlink:href="#66ghb"/></g><g><use fill="#fff" xlink:href="#66ghc"/></g><g><use fill="#fff" xlink:href="#66ghd"/></g><g><use fill="#fff" xlink:href="#66ghe"/></g><g><use fill="#009ba4" xlink:href="#66ghf"/></g><g><use fill="#009ba4" xlink:href="#66ghg"/></g><g><use fill="#009ba4" xlink:href="#66ghh"/></g><g><use fill="#009ba4" xlink:href="#66ghi"/></g><g><use fill="#009ba4" xlink:href="#66ghj"/></g><g><use fill="#009ba4" xlink:href="#66ghk"/></g><g><use fill="#009ba4" xlink:href="#66ghl"/></g><g><use fill="#009ba4" xlink:href="#66ghm"/></g></g></g></svg>